# xmcd
#
# Track frame offsets: 
#        150
#        13562
#        30532
#        50200
#        63557
#        79002
#        101142
#        119060
#        134335
#        157450
#        175020
#        194025
#        212842
#        233860
#        253570
#        274715
#        298560
#        317315
#
# Disc length: 4467 seconds
#
# Revision: 4
# Processed by: cddbd v1.5.2PL0 Copyright (c) Steve Scherf et al.
# Submitted via: ExactAudioCopyFreeDBPlugin 1.0
#
DISCID=11117112
DTITLE=Yuri - Las Numero 1
DYEAR=2007
DGENRE=Latin
TTITLE0=Hombres Al Borde De Un Ataque De Celos
TTITLE1=No Puedo Mas
TTITLE2=Imposible Amarte Como Yo
TTITLE3=Hola
TTITLE4=Es Inutil Ya
TTITLE5=Quien Eres Tu (Quem E Voce) (Love Will Lead You Back)
TTITLE6=El Apagon
TTITLE7=Cosas Del Amor
TTITLE8=Todo Mi Corazon
TTITLE9=Decir Adios (A Traves De Los Años) (As Time Goes By)
TTITLE10=Poligamia
TTITLE11=Mi Amor Es Para Ti
TTITLE12=Detras De Mi Ventana
TTITLE13=Amiga Mia
TTITLE14=De Que Te Vale Fingir
TTITLE15=Volver A Empezar
TTITLE16=Maldita Primavera (Version Ranchera)
TTITLE17=Callados
EXTD=
EXTT0=
EXTT1=
EXTT2=
EXTT3=
EXTT4=
EXTT5=
EXTT6=
EXTT7=
EXTT8=
EXTT9=
EXTT10=
EXTT11=
EXTT12=
EXTT13=
EXTT14=
EXTT15=
EXTT16=
EXTT17=
PLAYORDER=
